<svg fill="none" width="20px" height="20px" viewBox="0 0 20 20" id="chats">
<path d="M 80.071 14.56 H 9.929 C 4.454 14.56 0 19.014 0 24.489 v 41.505 c 0 5.476 
4.454 9.93 9.929 9.93 h 3.57 l 9.272 9.271 c 0.585 0.586 1.354 0.879 2.121 0.879 
s 1.536 -0.293 2.121 -0.879 l 9.272 -9.271 h 43.786 c 5.475 0 9.929 -4.454 9.929 
-9.93 V 24.489 C 90 19.014 85.546 14.56 80.071 14.56 z M 69.381 55.4 H 20.619 
c -1.657 0 -3 -1.343 -3 -3 s 1.343 -3 3 -3 h 48.762 c 1.657 0 3 1.343 3 3 S 71.038 
55.4 69.381 55.4 z M 69.381 41.083 H 20.619 c -1.657 0 -3 -1.343 -3 -3 s 1.343 -3 
3 -3 h 48.762 c 1.657 0 3 1.343 3 3 S 71.038 41.083 69.381 41.083 z"/></svg>